<svg xmlns="http://www.w3.org/2000/svg" viewBox="0 0 24 24"><path d="M5.97 17.642L17.49 6.124l-.566-.566L5.405 17.077zM17.615 6.248L6.094 17.766l.567.566L18.179 6.813zM6.094 17.766a.088.088 0 0 1-.123 0l-.566.566a.888.888 0 0 0 1.256 0zm11.52-11.642a.088.088 0 0 1 0 .124l.565.565a.888.888 0 0 0 0-1.255l-.565.566zm-.124 0a.088.088 0 0 1 .124 0l.565-.566a.888.888 0 0 0-1.255 0l.566.566zM5.405 17.077a.888.888 0 0 0 0 1.255l.566-.566a.088.088 0 0 1 0-.124l-.566-.565z"/><path d="M5.688 18.05a.488.488 0 0 1 0-.69L17.207 5.84a.488.488 0 1 1 .69.69L6.377 18.05c-.19.19-.498.19-.689 0z"/><g><path d="M6.51 6.233L18.03 17.752l.566-.566L7.075 5.667zm11.395 11.643L6.386 6.357l-.565.566 11.518 11.519zM6.386 6.357a.088.088 0 0 1 0-.124l-.565-.566a.888.888 0 0 0 0 1.256zM18.03 17.876a.088.088 0 0 1-.124 0l-.566.566a.888.888 0 0 0 1.256 0l-.566-.566zm0-.124a.088.088 0 0 1 0 .124l.566.566a.888.888 0 0 0 0-1.256l-.566.566zM7.076 5.667a.888.888 0 0 0-1.255 0l.565.566a.088.088 0 0 1 .124 0l.566-.566z"/><path d="M6.103 5.95c.19-.19.5-.19.69 0l11.519 11.52a.488.488 0 0 1-.69.69L6.103 6.639a.488.488 0 0 1 0-.69z"/></g></svg>