<svg xmlns="http://www.w3.org/2000/svg" viewBox="0 0 24 24"><path d="M3.333 5.067h17.334v-.8H3.333zm17.334.533H3.333v.8h17.334zm-17.334 0a.267.267 0 0 1-.266-.267h-.8c0 .59.477 1.067 1.066 1.067zm17.6-.267c0 .148-.12.267-.266.267v.8c.589 0 1.066-.478 1.066-1.067zm-.266-.266c.147 0 .266.12.266.266h.8c0-.589-.477-1.066-1.066-1.066zm-17.334-.8c-.589 0-1.066.477-1.066 1.066h.8c0-.147.12-.266.266-.266z"/><path d="M2.667 5.333c0-.368.298-.666.666-.666h17.334a.667.667 0 0 1 0 1.333H3.333a.667.667 0 0 1-.666-.667zM3.333 18.4h17.334v-.8H3.333zm17.334.533H3.333v.8h17.334zm-17.334 0a.267.267 0 0 1-.266-.266h-.8c0 .589.477 1.066 1.066 1.066zm17.6-.266c0 .147-.12.266-.266.266v.8c.589 0 1.066-.477 1.066-1.066zm-.266-.267c.147 0 .266.12.266.267h.8c0-.59-.477-1.067-1.066-1.067zm-17.334-.8c-.589 0-1.066.478-1.066 1.067h.8c0-.148.12-.267.266-.267z"/><path d="M2.667 18.667c0-.369.298-.667.666-.667h17.334a.667.667 0 1 1 0 1.333H3.333a.667.667 0 0 1-.666-.666z"/><g><path d="M3.304 11.836h17.392v-.8H3.304zm17.392.328H3.304v.8h17.392zm-17.392 0A.164.164 0 0 1 3.14 12h-.8c0 .533.431.964.964.964zM20.86 12c0 .09-.074.164-.164.164v.8A.964.964 0 0 0 21.66 12zm-.164-.164c.09 0 .164.074.164.164h.8a.964.964 0 0 0-.964-.964zm-17.392-.8A.964.964 0 0 0 2.34 12h.8c0-.09.073-.164.164-.164z"/><path d="M2.74 12c0-.311.252-.564.564-.564h17.392a.564.564 0 0 1 0 1.128H3.304A.564.564 0 0 1 2.74 12z"/></g></svg>